<?xml version="1.0" encoding="UTF-8"?>
<!DOCTYPE svg PUBLIC "-//W3C//DTD SVG 1.1//EN" "http://www.w3.org/Graphics/SVG/1.1/DTD/svg11.dtd">
<!-- Creator: CorelDRAW -->
<svg xmlns="http://www.w3.org/2000/svg" xml:space="preserve" width="210mm" height="297mm" version="1.1" style="shape-rendering:geometricPrecision; text-rendering:geometricPrecision; image-rendering:optimizeQuality; fill-rule:evenodd; clip-rule:evenodd"
viewBox="0 0 21000 29700"
 xmlns:xlink="http://www.w3.org/1999/xlink"
 xmlns:xodm="http://www.corel.com/coreldraw/odm/2003">
 <defs>
  <style type="text/css">
   <![CDATA[
    .fil0 {fill:#C5C6C6}
    .fil1 {fill:#FFD534}
    .fil3 {fill:#98BD28}
    .fil2 {fill:#0089C8}
    .fil4 {fill:#C5C6C6;fill-rule:nonzero}
    .fil5 {fill:#98BC27;fill-rule:nonzero}
   ]]>
  </style>
 </defs>
 <g id="Layer_x0020_1">
  <metadata id="CorelCorpID_0Corel-Layer"/>
  <g id="_2200419284896">
   <g>
    <path class="fil0" d="M13762.04 13408.95l-208.52 0 0.01 1254.85 -765.21 -1254.85 -208.52 0 0 1509.14 140.25 0 -1.33 -1347.73 832.61 1347.73 142.44 0 -1.3 -1347.73 673.55 1077.78c34.54,-30.41 68.89,-61.17 102.86,-92.55l-706.84 -1146.64z"/>
    <path class="fil0" d="M11546.2 14233.2l0 133.48 756.2 0c-16.43,70.16 -49.51,138.44 -99.22,204.81 -49.73,66.38 -112.78,121.32 -189.14,164.84 -76.36,43.52 -162.73,66.12 -259.09,67.69 -116.92,-1.65 -220.03,-31.62 -309.37,-89.83 -89.37,-58.27 -159.39,-134.79 -210.09,-229.59 -50.71,-94.8 -76.52,-197.89 -77.45,-309.28 0.96,-111.52 26.71,-215.01 77.24,-310.51 50.53,-95.47 120.09,-172.64 208.66,-231.51 88.56,-58.87 190.4,-89.17 305.51,-90.89 113.79,2.79 212.58,32.16 296.39,88.11 83.81,55.94 145.5,121.74 185.15,197.4l157.46 0c-17.98,-52.31 -54.66,-110.7 -110,-175.17 -55.33,-64.47 -127.69,-120.63 -217,-168.45 -89.32,-47.84 -193.92,-72.94 -313.84,-75.35 -145.56,2.33 -272.49,39.99 -380.78,112.99 -108.3,72.98 -192.5,167.26 -252.57,282.84 -60.07,115.57 -90.57,238.42 -91.46,368.53 1.46,137.58 34.27,263.94 98.46,379.04 64.16,115.1 150.82,207.59 259.94,277.48 109.12,69.86 231.88,105.77 368.25,107.67 113.16,-0.58 222.09,-28.94 326.8,-85.04 104.67,-56.13 192.59,-136.63 263.72,-241.54 71.11,-104.89 112.92,-230.81 125.38,-377.72l-919.15 0z"/>
    <polygon class="fil0" points="10755.27,14918.09 10890.55,14918.09 10890.55,13408.95 10755.27,13408.95 "/>
    <path class="fil0" d="M9832.63 14498.6c3.63,107.84 27.47,193.97 71.55,258.4 44.11,64.39 97.64,110.73 160.65,138.99 63.01,28.27 124.72,42.11 185.13,41.51 80.58,-1.15 151.41,-21.72 212.48,-61.68 61.07,-39.98 108.8,-92.61 143.22,-157.85 34.4,-65.27 51.9,-136.39 52.5,-213.38l0.01 -2c1.99,-18.55 -2.21,-55.31 -12.68,-110.23 -10.47,-54.94 -39.23,-112.54 -86.28,-172.78 -47.08,-60.26 -124.51,-107.65 -232.31,-142.17 -91.16,-24.8 -167.12,-55.56 -227.83,-92.34 -60.71,-36.76 -92.23,-98.48 -94.56,-185.15 0.5,-66.61 21.93,-125.51 64.33,-176.65 42.41,-51.15 102.78,-78.1 181.12,-80.86 66.11,1.8 122.14,27.66 168.07,77.61 45.96,49.94 69.92,113.24 71.92,189.89l135.26 0c-1.78,-111.03 -36.63,-204.8 -104.52,-281.33 -67.86,-76.52 -158.12,-116.4 -270.71,-119.63 -109.64,2.2 -199.89,39.65 -270.75,112.4 -70.85,72.74 -107.53,167.59 -109.98,284.56 2.07,96.45 23.34,170.6 63.83,222.48 40.49,51.85 87.81,89.64 141.93,113.33 54.13,23.69 102.68,41.51 145.64,53.47 32.57,9.1 72.25,23.93 119.07,44.48 46.82,20.59 88.53,52.12 125.17,94.65 36.63,42.51 55.96,101.28 58.01,176.25 -2.43,88.2 -30.07,158.82 -82.89,211.84 -52.81,53.04 -116.16,80.23 -190.05,81.61 -84.21,-1.13 -151.14,-28.82 -200.78,-83.1 -49.62,-54.26 -76.7,-128.38 -81.24,-222.32l-135.31 0z"/>
    <path class="fil1" d="M14693.11 14337.11l1.01 -766.75 3.67 0 281.45 450.4c-92.61,109.88 -187.99,215.35 -286.13,316.35zm1004.56 -1358.58c-189.3,337.03 -397.93,645.89 -623.94,927.38l-306.34 -496.96 -208.52 0 0 1061.82c-29.76,28.68 -59.78,56.89 -89.99,84.82 -33.97,31.38 -68.32,62.14 -102.86,92.56 -1751.02,1541.01 -4239.69,1819.31 -6995.42,871.32 2899.13,1363.15 5440.76,1416.31 7174.32,-601.38l13.95 0 133.48 0 0.24 -178.93c135.09,-171.19 264.88,-355.88 389.19,-554.34l458.24 733.27 157.65 0 -534.27 -866.73c192.19,-322.53 370.59,-679.61 534.27,-1072.83z"/>
    <path class="fil2" d="M9737.28 13690.47l-176.17 0 0 -306.27 176.17 0 0 306.27zm0 1252.37l-176.17 0 0 -1164.98 176.17 0 0 1164.98z"/>
    <path class="fil2" d="M8539.24 14103.98c-35.64,64.17 -54.45,141.29 -55.5,232.39 3.56,254.89 164.79,422.22 396.33,428.56 221.85,-2.31 384.58,-191.04 387.41,-429.99 -2.01,-239.04 -164.75,-431.18 -387.07,-434.54 -140.97,0.83 -267.37,70.66 -341.17,203.58zm720.76 657.65c-92.6,114.74 -239.11,185.38 -379.97,181.05 -321.88,-3.92 -569.75,-257.01 -572.46,-612.03 2.03,-351.79 255.19,-603.11 572.09,-607.99 141.71,-4.3 286.47,65.1 380.34,179.87l0 -518.33 176.17 0 0 1531.97 -176.17 0 0 -154.54z"/>
    <path class="fil2" d="M7363.55 14057.21c-34.79,46.26 -59.74,104.48 -74.18,175.51l743.44 0c-41.52,-192.01 -188.01,-332.71 -372.47,-332.17 -115.46,-0.34 -224.12,60.03 -296.79,156.66zm853.63 310.4c-1.18,14.21 -0.95,28.63 -1.11,42.86l-929.37 0c22.98,197.5 190.56,351.79 371.47,354.6 164.05,-7.28 293.68,-92.42 351.21,-263.27l186.57 -0.01c-87.36,265.9 -268.93,435.67 -535.52,441.05 -311.97,-3.5 -551.95,-269 -555.85,-607.98 3.33,-339.12 243.94,-601.79 553.93,-612.05 193.96,7.07 379.45,108.65 475.98,297.35 54.75,98.82 84.64,209.4 83.74,325.1 -0.09,7.72 -0.43,15.2 -1.05,22.35z"/>
    <path class="fil2" d="M6830.53 14942.84l187.02 0 0 -1130.05c-62.62,56.14 -124.43,113.75 -185.22,173.29l-1.8 956.76z"/>
    <path class="fil2" d="M6974.61 13384.2l-200.46 0 -730.35 1197.63 0 -1197.63 -243.41 0 -950.85 1558.64 212.12 0 797.87 -1291.54 1.34 1291.54 76.47 0c308.79,-624.36 655.4,-1141.29 1037.27,-1558.64z"/>
    <path class="fil3" d="M6974.61 13384.2c-381.87,417.35 -728.48,934.28 -1037.27,1558.64 -90.49,182.96 -177.77,374.99 -261.7,576.63 113.59,-202.24 233.3,-394.21 358.52,-576.63 5.61,-8.2 11.24,-16.35 16.88,-24.5 240.13,-346.72 500.87,-657.67 781.29,-932.26 60.79,-59.54 122.6,-117.15 185.22,-173.28 1692.45,-1517.69 4042.99,-1798.35 6778.57,-857.27 -2803.75,-1318.32 -5150.16,-1397.94 -6821.51,428.67z"/>
    <path class="fil4" d="M15298.8 12373.25c82.74,0 157.65,33.54 211.87,87.76 54.22,54.23 87.76,129.14 87.76,211.88 0,82.73 -33.54,157.64 -87.76,211.86 -54.22,54.23 -129.13,87.77 -211.87,87.77 -82.74,0 -157.65,-33.54 -211.87,-87.77 -54.22,-54.22 -87.76,-129.13 -87.76,-211.86 0,-82.74 33.54,-157.65 87.76,-211.88 54.22,-54.22 129.13,-87.76 211.87,-87.76zm177.89 121.74c-45.52,-45.52 -108.42,-73.68 -177.89,-73.68 -69.47,0 -132.37,28.15 -177.9,73.68 -45.52,45.52 -73.68,108.42 -73.68,177.9 0,69.47 28.16,132.37 73.68,177.89 45.53,45.52 108.43,73.68 177.9,73.68 69.47,0 132.37,-28.16 177.89,-73.68 45.53,-45.52 73.69,-108.42 73.69,-177.89 0,-69.48 -28.16,-132.37 -73.69,-177.9z"/>
    <path class="fil4" d="M9071.07 15220.03l238.66 0c-2.61,60.03 -22.17,108.61 -58.49,145.84 -36.32,37.22 -82.47,55.88 -138.17,55.88 -29.03,0 -55.7,-5.59 -80.13,-16.68 -24.42,-11.08 -46.33,-27.49 -65.8,-49.3 -16.4,-18.11 -28.84,-38.76 -37.31,-61.92 -8.47,-23.16 -12.71,-47.86 -12.71,-74.27 0,-26.95 5.14,-52.45 15.32,-76.61 10.28,-24.07 25.24,-45.79 45.07,-65.17 18.66,-18.65 39.57,-32.62 62.73,-41.82 23.17,-9.28 48.85,-13.88 77.06,-13.88 39.03,0 73.19,9.11 102.57,27.31 29.39,18.21 51.65,44.08 66.61,77.61l-68.68 0c-12.71,-16.32 -27.94,-28.57 -45.6,-36.87 -17.76,-8.2 -37.5,-12.35 -59.22,-12.35 -18.21,0 -35.6,3.43 -52.01,10.28 -16.49,6.85 -31.09,16.85 -43.8,29.83 -13.25,13.52 -23.62,29.29 -31.01,47.23 -7.48,18.03 -11.17,36.33 -11.17,54.98 0,20.01 3.33,38.94 10.09,56.87 6.67,17.85 16.31,33.26 28.84,46.33 13.25,13.7 28.57,24.34 45.88,31.91 17.31,7.57 34.97,11.36 53,11.36 29.38,0 55.25,-7.75 77.69,-23.35 22.44,-15.59 40.92,-38.67 55.43,-69.13l-174.85 0 0 -54.08zm339.34 194.15l-52.46 0 0 -290.41 49.31 0 0 33.44c8.56,-12.89 18.47,-22.44 29.65,-28.66 11.18,-6.22 24.15,-9.46 38.94,-9.65l0 54.63c-23.44,1.8 -40.11,8.65 -50.3,20.73 -10.09,12.07 -15.14,31.45 -15.14,58.22l0 161.7zm345.57 0l-50.3 0 0 -32.45c-10.45,13.16 -22.08,22.89 -35.06,29.29 -12.89,6.4 -27.4,9.65 -43.44,9.65 -36.6,0 -64.9,-11.36 -84.99,-34.07 -20.1,-22.63 -30.11,-54.53 -30.11,-95.72l0 -167.11 52.46 0 0 152.05c0,31.37 5.5,54.8 16.58,70.49 11.09,15.68 27.76,23.52 49.84,23.52 13.8,0 25.96,-3.24 36.69,-9.64 10.73,-6.4 19.29,-15.6 25.59,-27.58 3.88,-7.39 6.68,-16.23 8.3,-26.41 1.71,-10.19 2.52,-26.68 2.52,-49.39l0 -133.04 51.92 0 0 290.41zm112.48 -147.1c0,28.75 9.64,53.18 28.93,73.46 19.29,20.28 42.27,30.37 68.96,30.37 27.3,0 50.65,-9.73 70.21,-29.2 19.56,-19.47 29.29,-43.08 29.29,-70.84 0,-29.48 -9.64,-54.08 -29.02,-74 -19.38,-19.92 -42.99,-29.83 -70.93,-29.83 -25.69,0 -48.41,10 -67.96,30.01 -19.65,19.92 -29.48,43.35 -29.48,70.03zm1.63 112.04l0 129.15 -52.46 0 0 -384.5 52.99 0 0 35.6c13.35,-13.79 28.3,-24.24 44.8,-31.36 16.4,-7.12 33.98,-10.73 52.64,-10.73 43.89,0 80.21,14.51 109.06,43.53 28.93,29.12 43.35,65.53 43.35,109.34 0,20.28 -3.6,39.56 -10.82,57.86 -7.21,18.3 -17.57,34.61 -31.18,48.85 -14.6,15.32 -30.56,26.59 -47.95,33.89 -17.31,7.3 -37.04,11 -59.31,11 -19.65,0 -37.95,-3.52 -54.8,-10.64 -16.76,-7.12 -32.27,-17.85 -46.32,-31.99zm334.74 -110.42c0,29.03 9.19,53.27 27.58,72.65 18.39,19.38 41.37,29.02 68.77,29.02 26.95,0 49.58,-9.73 67.78,-29.2 18.21,-19.47 27.31,-43.81 27.31,-73.01 0,-29.38 -9.1,-53.72 -27.31,-72.91 -18.2,-19.2 -41.01,-28.76 -68.23,-28.76 -27.13,0 -49.93,9.74 -68.32,29.21 -18.39,19.46 -27.58,43.8 -27.58,73zm-54.08 0.54c0,-20.63 3.52,-39.83 10.46,-57.68 6.94,-17.85 17.22,-33.89 30.74,-48.13 14.59,-15.68 31,-27.76 49.39,-36.14 18.29,-8.47 37.22,-12.71 56.96,-12.71 21.09,0 40.74,3.79 58.76,11.36 18.03,7.57 34.34,18.74 48.95,33.52 14.24,14.6 25.24,31.01 32.89,49.3 7.67,18.3 11.45,37.23 11.45,56.79 0,19.83 -3.6,39.21 -10.72,58.04 -7.13,18.84 -17.04,35.25 -29.93,49.3 -14.78,16.23 -31.36,28.49 -49.75,36.87 -18.39,8.38 -37.95,12.53 -58.77,12.53 -21.27,0 -40.91,-3.79 -58.85,-11.45 -17.94,-7.66 -34.07,-19.02 -48.31,-33.98 -13.52,-14.24 -24.16,-30.82 -31.82,-49.75 -7.66,-18.84 -11.45,-38.22 -11.45,-57.87z"/>
    <path class="fil4" d="M15239.56 12678.99l23.82 0c32.25,0 56.22,-5.2 71.97,-15.68 15.75,-10.4 23.59,-26.3 23.59,-47.55 0,-20.73 -6.78,-35.95 -20.27,-45.68 -13.57,-9.72 -34.97,-14.54 -64.21,-14.54l-34.9 0 0 123.45zm0 154.66l-46.58 0 0 -321.53 92.7 0c38.59,0 68.06,8.9 88.41,26.76 20.35,17.79 30.53,43.56 30.53,77.25 0,26.23 -8.52,48.09 -25.55,65.72 -17.04,17.56 -38.97,26.99 -65.8,28.34l91.35 123.46 -58.34 0 -106.72 -149.38 0 149.38z"/>
   </g>
   <path class="fil5" d="M7281.12 16394.39l94.18 40.37c-16.59,40.39 -23.7,77.03 -21.46,110.04 2.32,32.85 15.7,65.77 40.14,98.78 24.53,32.83 57.29,60.52 98.2,82.81 36.4,19.84 71.52,31.65 105.6,35.37 34.09,3.69 63.29,-0.77 87.75,-13.29 24.43,-12.53 43.13,-30.49 55.84,-53.8 12.88,-23.63 17.6,-47.85 14.23,-72.78 -3.45,-24.78 -17.02,-51.38 -40.57,-80.01 -15.06,-18.3 -51.09,-53.96 -108.21,-106.82 -57.12,-52.87 -94.85,-93.8 -113.27,-123.07 -23.99,-37.79 -36.61,-75.33 -38.08,-112.52 -1.66,-37.3 7.17,-73.46 26.11,-108.22 20.96,-38.46 50.89,-68.59 89.6,-90.51 38.79,-22.13 82.57,-31 131.73,-26.61 49.04,4.28 97.84,19.68 146.31,46.1 53.34,29.07 95.56,63.73 126.42,104.13 30.93,40.21 47.8,83.95 50.53,131.2 2.83,47.09 -7.17,93.37 -29.72,138.76l-95.62 -42.52c21.21,-50.46 24.3,-95.68 9.24,-135.48 -14.96,-39.97 -50.27,-74.98 -105.64,-105.16 -57.69,-31.44 -105.84,-43.28 -144.27,-35.39 -38.46,7.87 -66.31,27.47 -83.43,58.88 -14.81,27.18 -17.64,54.7 -8.63,82.48 8.92,27.53 46.81,71.77 114.29,132.32 67.4,60.77 111.82,105.81 133.15,135.3 30.71,43.05 47.79,85.54 50.74,127.66 3.04,41.94 -6.59,83.14 -28.71,123.73 -22.02,40.38 -53.51,72.2 -94.91,95.89 -41.39,23.66 -87.85,34.25 -139.71,31.64 -51.87,-2.65 -103.37,-17.9 -154.86,-45.97 -65.09,-35.47 -114.12,-75.23 -147.18,-119.1 -33.25,-44.01 -51.28,-92.73 -54.35,-146.59 -3.33,-53.75 8.32,-106.24 34.56,-157.62z"/>
   <path class="fil5" d="M8285.32 16993.98l96.94 64.05c-41.43,41.22 -91.12,64.34 -148.81,69.18 -57.7,4.85 -120.46,-10.08 -188.38,-45.01 -85.42,-43.93 -141.92,-100.61 -169.51,-170.02 -27.65,-69.23 -21.17,-143.4 19.33,-222.14 41.87,-81.4 99.65,-131.73 173.36,-150.6 73.79,-19.04 151,-7.72 231.72,33.79 78.08,40.16 130.56,94.94 157.33,164.52 26.79,69.59 19.7,144.42 -21.44,224.41 -2.49,4.84 -6.45,12.08 -11.79,21.54l-436.32 -224.41c-23.59,55.11 -26.53,105.27 -8.33,150.33 18.05,44.97 51.58,80.15 100.3,105.21 36.32,18.68 71.45,26.69 105.23,23.94 33.94,-2.64 67.34,-17.62 100.37,-44.79zm-257.27 -299.15l326.24 167.8c16.69,-43.07 19.79,-80.12 9.8,-111.11 -15.13,-47.81 -47.96,-84.82 -98.2,-110.66 -45.52,-23.41 -90.24,-30.42 -134.27,-21.12 -43.85,9.39 -78.37,34.42 -103.57,75.09z"/>
   <path class="fil5" d="M8406.94 17299.22l105.42 46.61c-4.18,29.48 2.36,53.89 19.38,73.39 22.76,25.92 58.46,46.51 107.16,61.56 52.32,16.17 95.57,19.99 129.41,11.57 33.85,-8.44 60.68,-26.82 80.39,-54.81 11.69,-17.23 26.82,-56.39 45.24,-117.49 -64.5,33.03 -133.53,38.19 -207.31,15.39 -91.78,-28.37 -154.54,-77.78 -187.75,-148.22 -33.48,-70.33 -38.23,-143.84 -14.55,-220.46 16.32,-52.81 42.96,-97.93 79.7,-135.45 36.72,-37.54 80.8,-61.51 132.06,-72.33 51.31,-10.83 106.51,-6.99 165.7,11.31 78.73,24.33 135.49,71.08 170.05,140.17l21.1 -68.25 104.24 32.22 -147.76 478c-26.65,86.22 -56.01,143.94 -88.34,173.31 -32.13,29.4 -74.61,47.44 -126.69,54.11 -52.34,6.62 -112,-0.34 -178.91,-21.02 -79.59,-24.6 -139.14,-59.18 -178.88,-103.98 -40,-44.69 -49.8,-96.6 -29.66,-155.63zm195.3 -303.41c-22.36,72.34 -21.33,130.51 3.15,174.49 24.69,44.04 63.05,74.22 115.4,90.4 52.1,16.11 100.77,13.05 146.38,-9.1 45.39,-22.18 79.01,-68.65 100.88,-139.4 20.88,-67.57 18.44,-124.2 -7.22,-169.73 -25.63,-45.51 -64.1,-76.09 -115.17,-91.88 -50.41,-15.58 -98.31,-11.89 -144.14,10.96 -45.6,22.89 -78.67,67.6 -99.28,134.26z"/>
   <path class="fil5" d="M9601.85 17520.94l7.4 -88.11c-56.54,62.08 -128.31,88.67 -215.56,79.94 -38.48,-3.86 -73.85,-14.12 -106.17,-30.79 -32.3,-16.86 -55.72,-36.09 -70.2,-57.88 -14.48,-21.99 -23.75,-47.85 -27.82,-77.82 -2.75,-20.21 -2.45,-51.65 1.13,-94.29l30.79 -366.67 111.03 11.12 -27.53 327.86c-4.39,52.32 -5.07,87.93 -2.18,106.47 4.73,27.13 17.72,49.15 39.16,66.48 21.24,17.27 48.35,27.65 81.57,30.98 33.23,3.33 64.98,-1.16 95.3,-13.66 30.29,-12.52 52.68,-31.57 67.09,-56.81 14.2,-25.23 23.55,-63.26 27.79,-113.67l26.6 -316.83 111.01 11.11 -49.76 592.54 -99.65 -9.97z"/>
   <path class="fil5" d="M9863.82 16843.83l4.94 -116.85 98.06 4.15 -4.94 116.85 -98.06 -4.15zm-30.43 719.85l25.64 -606.5 98.06 4.14 -25.64 606.51 -98.06 -4.15z"/>
   <path class="fil5" d="M10071.29 17599.82l0 -595.21 98.51 0 0 84.12c20.17,-29.07 47.19,-52.59 80.86,-70.17 33.67,-17.77 71.9,-26.55 114.94,-26.55 47.78,0 87.08,9.16 117.63,27.31 30.54,18.37 52.16,43.78 64.63,76.67 51.55,-69.38 118.27,-103.98 200.57,-103.98 64.43,0 114.09,16.23 148.59,48.93 34.73,32.67 52.17,82.95 52.17,150.81l0 408.07 -109.73 0 0 -374.64c0,-40.12 -3.74,-69.19 -10.81,-86.96 -7.07,-17.77 -19.95,-31.91 -38.86,-42.8 -18.7,-10.92 -40.74,-16.26 -65.9,-16.26 -45.71,0 -83.54,13.96 -113.67,41.67 -30.14,27.9 -45.1,72.44 -45.1,133.61l0 345.38 -109.73 0 0 -386.29c0,-44.72 -8.96,-78.37 -26.84,-100.72 -17.85,-22.38 -47.16,-33.65 -87.69,-33.65 -30.76,0 -59.24,7.45 -85.43,22.35 -26.19,14.93 -45.1,36.71 -56.94,65.56 -11.64,28.69 -17.47,70.17 -17.47,124.24l0 308.51 -109.73 0z"/>
   <path class="fil5" d="M11070.8 17264.05c0,-102.71 33.13,-178.8 99.6,-228.27 55.29,-41.09 123,-61.62 202.71,-61.62 88.42,0 160.88,24.99 217.2,75.01 56.11,49.82 84.29,118.96 84.29,207.01 0,71.44 -12.45,127.54 -37.27,168.42 -24.86,40.91 -61.11,72.71 -108.71,95.39 -47.42,22.69 -99.4,33.95 -155.51,33.95 -90.28,0 -163.18,-24.83 -218.88,-74.68 -55.7,-49.82 -83.43,-121.62 -83.43,-215.21zm111.81 0.18c0,71.08 18.02,124.3 54.03,159.49 36.25,35.36 81.59,53.06 136.47,53.06 54.26,0 99.4,-17.7 135.61,-53.24 36.04,-35.54 54.06,-89.67 54.06,-162.35 0,-68.61 -18.22,-120.58 -54.47,-155.77 -36.21,-35.36 -81.38,-53.03 -135.2,-53.03 -54.88,0 -100.22,17.49 -136.47,52.68 -36.01,35.19 -54.03,88.25 -54.03,159.16z"/>
   <path class="fil5" d="M11706.6 17335.78l96.67 -28.36c10.54,37.46 29.89,64.67 57.94,81.79 28.01,16.97 64.92,22.51 110.28,16.52 45.96,-6.07 78.81,-19.53 98.72,-40.58 19.77,-20.83 28.12,-43.49 24.9,-67.82 -2.87,-21.74 -15.16,-37.62 -36.65,-47.41 -15.13,-6.75 -50.58,-13.04 -106.42,-19.24 -75.32,-8.12 -127.83,-16.79 -157.89,-26.03 -29.93,-9.44 -53.66,-24.55 -71.25,-45.66 -17.59,-20.93 -28.31,-45.34 -31.99,-73.14 -3.35,-25.42 -0.38,-49.62 8.7,-72.75 9.23,-23.17 23.13,-43.23 41.86,-60.22 14.07,-13.01 34,-25.13 59.65,-36.32 25.82,-11.21 53.88,-18.82 84.51,-22.86 46.11,-6.09 87.42,-5.06 123.92,3.33 36.68,8.18 64.7,22.35 84.24,42.07 19.37,19.96 34.78,47.87 45.9,83.96l-95.81 26.04c-8.27,-29.03 -24.2,-50.55 -47.57,-64.39 -23.36,-13.84 -54.33,-18.13 -93.08,-13.02 -45.56,6.02 -77.31,17.67 -94.86,34.86 -17.52,17.2 -25.09,35.68 -22.51,55.24 1.65,12.44 7.11,23.24 16.55,32.22 9.5,9.16 23.29,16.09 41.57,20.55 10.5,2.33 40.72,6.7 91.18,13.06 72.73,8.82 123.86,17.31 153.36,25.15 29.52,7.8 53.68,21.91 72.47,41.75 19,20.01 30.55,46.37 34.9,79.28 4.22,31.99 -1.45,63.43 -17.18,94.34 -15.72,30.89 -40.83,56.53 -75.25,76.89 -34.63,20.37 -75.02,33.53 -121.16,39.62 -76.38,10.08 -136.82,2.43 -180.94,-22.8 -44.15,-25.43 -75.64,-67.38 -94.76,-126.07z"/>
   <path class="fil5" d="M12371.75 16663.7l-31.88 -114.64 94.57 -26.3 31.88 114.64 -94.57 26.3zm112.11 949.67l-13.95 -87.02c20.4,-0.21 66.92,-4.05 77.84,-7.09 19.34,-5.38 31.79,-16.11 37.58,-32.05 5.8,-15.94 1.32,-50.82 -13.52,-104.19l-170.36 -612.56 94.56 -26.3 170.93 614.61c19.96,71.76 24.91,124.25 14.83,157.34 -12.6,42.84 -45.29,71.72 -98.12,86.41 -25.61,7.13 -74.08,11.17 -99.79,10.85z"/>
   <path class="fil5" d="M13179.53 17109.3l-27.83 -81.3c-23.86,77.41 -74.34,129.22 -151.6,155.67 -34.07,11.66 -68,16.41 -101.81,14.25 -33.88,-2.34 -61.15,-10.27 -81.85,-23.98 -20.76,-13.89 -38.63,-33.27 -53.66,-58.34 -10.15,-16.9 -22.07,-44.99 -35.53,-84.34l-115.81 -338.35 98.32 -33.66 103.55 302.55c16.53,48.28 29.73,80.23 39.36,95.59 14.49,22.29 34.02,36.79 58.88,43.79 24.67,7.05 51.64,5.66 81.06,-4.41 29.42,-10.08 54.57,-26.52 75.41,-49.53 20.8,-23.02 32.39,-48.76 34.83,-76.87 2.26,-28.02 -4.54,-65.53 -20.46,-112.04l-100.06 -292.37 98.29 -33.64 187.15 546.78 -88.24 30.2z"/>
   <path class="fil5" d="M13420.95 17006.59l-252.84 -495.33 90.96 -46.43 35.9 70.32c16.24,-76.27 65.85,-135.47 148.57,-177.69 36.09,-18.43 71.84,-29.88 107.42,-34.6 35.58,-4.72 65.44,-2.12 89.25,7.58 23.84,9.69 44.95,24.97 63.08,45.79 11.61,13.74 27.39,39.95 47.21,78.78l155.24 304.12 -101.33 51.73 -153.62 -300.95c-17.45,-34.2 -34.36,-57.86 -50.86,-70.69 -16.47,-12.86 -37.37,-19.21 -62.54,-19.21 -25.05,0.17 -51.26,7.13 -78.13,20.85 -42.98,21.93 -74.26,52.14 -93.93,90.86 -19.76,38.55 -13.31,89.6 19,152.91l137.95 270.24 -101.33 51.72z"/>
   <path class="fil5" d="M14291.57 16436.6l59.06 69.54c-18.88,20.86 -116.81,85.8 -134.23,98.45 -28.73,20.89 -54.22,32.62 -76.83,35.04 -22.45,2.35 -42.21,-1.41 -59.5,-11.59 -17.29,-10.14 -43.2,-39.09 -77.88,-86.71l-196.22 -269.41 -58.62 42.69 -44.63 -61.28 58.61 -42.69 -84.22 -115.65 44.67 -105.38 118.9 163.24 180.65 -112.49 55.44 51.14 -191.46 122.63 199.51 273.93c16.51,22.67 28.49,36.25 36.04,40.63 7.42,4.5 15.62,6.31 24.8,5.62 9.03,-0.85 19.49,-5.47 31.2,-14 8.69,-6.33 101.94,-71.21 114.71,-83.71z"/>
   <path class="fil5" d="M14260 16238.41c-56.08,-91.43 -71.41,-175.26 -45.81,-251.57 21.32,-63.41 63.69,-114.55 126.78,-153.25 69.98,-42.92 140.97,-55.85 212.85,-38.66 71.61,17.12 131.66,64.99 179.74,143.37 39.01,63.6 59.79,119.58 62.46,168.03 2.67,48.48 -8.65,94.38 -33.94,137.68 -25.15,43.22 -60.13,78.48 -104.54,105.71 -71.44,43.83 -142.7,57.1 -214,39.77 -71.29,-17.31 -132.44,-67.77 -183.54,-151.08zm88.59 -54.12c38.81,63.28 82.13,101.9 129.84,115.75 48,13.89 93.54,7.63 136.98,-19.01 42.94,-26.34 69,-64 78.26,-113.22 9.11,-49.14 -6.18,-106.07 -45.87,-170.77 -37.46,-61.07 -80.26,-98.49 -128.16,-112.23 -47.97,-13.9 -93.36,-7.71 -135.96,18.42 -43.43,26.64 -69.77,64.22 -79.24,113.14 -9.28,48.81 5.43,104.79 44.15,167.92z"/>
   <path class="fil5" d="M14862.69 15957.48l67.13 -71.83c28.21,27.62 58.6,41.99 91.14,43.31 32.43,1.21 66.5,-11.9 101.77,-39.21 35.74,-27.66 56.58,-55.41 62.56,-83.5 5.99,-27.82 1.37,-51.7 -13.88,-71.4 -13.63,-17.61 -32.21,-25.51 -55.43,-23.61 -16.27,1.45 -49.49,13.21 -99.91,34.95 -67.86,29.55 -116.74,47.51 -146.92,54.06 -30.18,6.31 -58.02,4.64 -83.78,-5.25 -25.66,-9.74 -47.31,-25.87 -64.74,-48.39 -15.94,-20.58 -25.9,-43.18 -30.14,-67.81 -4.13,-24.76 -2.71,-49.05 4.36,-73.02 5.2,-18.21 15.81,-38.51 31.73,-60.77 16.05,-22.36 35.86,-42.66 59.68,-61.09 35.86,-27.76 71.32,-46.96 106.5,-57.38 35.24,-10.7 66.24,-11.94 92.92,-4.2 26.67,8.02 54.08,24.92 82.08,51.06l-67.59 69.38c-21.96,-21.36 -46.52,-32.42 -73.41,-33.15 -26.89,-0.73 -55.29,10.58 -85.42,33.9 -35.42,27.42 -56.27,53.06 -62.26,76.62 -5.95,23.57 -2.82,43.4 9.44,59.24 7.8,10.08 17.98,16.86 30.6,20.11 12.75,3.39 27.98,2.74 45.74,-2.25 10.08,-3.07 37.88,-13.95 83.83,-32.94 66.05,-27.67 113.66,-45.12 142.64,-52.63 28.99,-7.53 56.69,-6.96 82.8,1.25 26.38,8.24 49.73,25.67 70.36,52.32 20.07,25.92 31.47,56.15 34.1,90.83 2.62,34.65 -5.39,69.28 -24.01,103.83 -18.79,34.65 -46.16,65.8 -82.04,93.58 -59.39,45.97 -114.44,68.68 -164.75,68.09 -50.44,-0.76 -98.69,-22.1 -145.1,-64.1z"/>
   <path class="fil5" d="M15241.54 15547.54l-296.09 -300.7 -122.15 -133.69 89.76 -82.01 122.15 133.69 269.47 320.24 -63.14 62.47zm136.33 165.96l-76.99 -84.26 83.18 -76 76.99 84.26 -83.18 76z"/>
   <path class="fil5" d="M7281.12 16394.39l94.18 40.37c-16.59,40.39 -23.7,77.03 -21.46,110.04 2.32,32.85 15.7,65.77 40.14,98.78 24.53,32.83 57.29,60.52 98.2,82.81 36.4,19.84 71.52,31.65 105.6,35.37 34.09,3.69 63.29,-0.77 87.75,-13.29 24.43,-12.53 43.13,-30.49 55.84,-53.8 12.88,-23.63 17.6,-47.85 14.23,-72.78 -3.45,-24.78 -17.02,-51.38 -40.57,-80.01 -15.06,-18.3 -51.09,-53.96 -108.21,-106.82 -57.12,-52.87 -94.85,-93.8 -113.27,-123.07 -23.99,-37.79 -36.61,-75.33 -38.08,-112.52 -1.66,-37.3 7.17,-73.46 26.11,-108.22 20.96,-38.46 50.89,-68.59 89.6,-90.51 38.79,-22.13 82.57,-31 131.73,-26.61 49.04,4.28 97.84,19.68 146.31,46.1 53.34,29.07 95.56,63.73 126.42,104.13 30.93,40.21 47.8,83.95 50.53,131.2 2.83,47.09 -7.17,93.37 -29.72,138.76l-95.62 -42.52c21.21,-50.46 24.3,-95.68 9.24,-135.48 -14.96,-39.97 -50.27,-74.98 -105.64,-105.16 -57.69,-31.44 -105.84,-43.28 -144.27,-35.39 -38.46,7.87 -66.31,27.47 -83.43,58.88 -14.81,27.18 -17.64,54.7 -8.63,82.48 8.92,27.53 46.81,71.77 114.29,132.32 67.4,60.77 111.82,105.81 133.15,135.3 30.71,43.05 47.79,85.54 50.74,127.66 3.04,41.94 -6.59,83.14 -28.71,123.73 -22.02,40.38 -53.51,72.2 -94.91,95.89 -41.39,23.66 -87.85,34.25 -139.71,31.64 -51.87,-2.65 -103.37,-17.9 -154.86,-45.97 -65.09,-35.47 -114.12,-75.23 -147.18,-119.1 -33.25,-44.01 -51.28,-92.73 -54.35,-146.59 -3.33,-53.75 8.32,-106.24 34.56,-157.62z"/>
   <path class="fil5" d="M8285.32 16993.98l96.94 64.05c-41.43,41.22 -91.12,64.34 -148.81,69.18 -57.7,4.85 -120.46,-10.08 -188.38,-45.01 -85.42,-43.93 -141.92,-100.61 -169.51,-170.02 -27.65,-69.23 -21.17,-143.4 19.33,-222.14 41.87,-81.4 99.65,-131.73 173.36,-150.6 73.79,-19.04 151,-7.72 231.72,33.79 78.08,40.16 130.56,94.94 157.33,164.52 26.79,69.59 19.7,144.42 -21.44,224.41 -2.49,4.84 -6.45,12.08 -11.79,21.54l-436.32 -224.41c-23.59,55.11 -26.53,105.27 -8.33,150.33 18.05,44.97 51.58,80.15 100.3,105.21 36.32,18.68 71.45,26.69 105.23,23.94 33.94,-2.64 67.34,-17.62 100.37,-44.79zm-257.27 -299.15l326.24 167.8c16.69,-43.07 19.79,-80.12 9.8,-111.11 -15.13,-47.81 -47.96,-84.82 -98.2,-110.66 -45.52,-23.41 -90.24,-30.42 -134.27,-21.12 -43.85,9.39 -78.37,34.42 -103.57,75.09z"/>
   <path class="fil5" d="M8406.94 17299.22l105.42 46.61c-4.18,29.48 2.36,53.89 19.38,73.39 22.76,25.92 58.46,46.51 107.16,61.56 52.32,16.17 95.57,19.99 129.41,11.57 33.85,-8.44 60.68,-26.82 80.39,-54.81 11.69,-17.23 26.82,-56.39 45.24,-117.49 -64.5,33.03 -133.53,38.19 -207.31,15.39 -91.78,-28.37 -154.54,-77.78 -187.75,-148.22 -33.48,-70.33 -38.23,-143.84 -14.55,-220.46 16.32,-52.81 42.96,-97.93 79.7,-135.45 36.72,-37.54 80.8,-61.51 132.06,-72.33 51.31,-10.83 106.51,-6.99 165.7,11.31 78.73,24.33 135.49,71.08 170.05,140.17l21.1 -68.25 104.24 32.22 -147.76 478c-26.65,86.22 -56.01,143.94 -88.34,173.31 -32.13,29.4 -74.61,47.44 -126.69,54.11 -52.34,6.62 -112,-0.34 -178.91,-21.02 -79.59,-24.6 -139.14,-59.18 -178.88,-103.98 -40,-44.69 -49.8,-96.6 -29.66,-155.63zm195.3 -303.41c-22.36,72.34 -21.33,130.51 3.15,174.49 24.69,44.04 63.05,74.22 115.4,90.4 52.1,16.11 100.77,13.05 146.38,-9.1 45.39,-22.18 79.01,-68.65 100.88,-139.4 20.88,-67.57 18.44,-124.2 -7.22,-169.73 -25.63,-45.51 -64.1,-76.09 -115.17,-91.88 -50.41,-15.58 -98.31,-11.89 -144.14,10.96 -45.6,22.89 -78.67,67.6 -99.28,134.26z"/>
   <path class="fil5" d="M9601.85 17520.94l7.4 -88.11c-56.54,62.08 -128.31,88.67 -215.56,79.94 -38.48,-3.86 -73.85,-14.12 -106.17,-30.79 -32.3,-16.86 -55.72,-36.09 -70.2,-57.88 -14.48,-21.99 -23.75,-47.85 -27.82,-77.82 -2.75,-20.21 -2.45,-51.65 1.13,-94.29l30.79 -366.67 111.03 11.12 -27.53 327.86c-4.39,52.32 -5.07,87.93 -2.18,106.47 4.73,27.13 17.72,49.15 39.16,66.48 21.24,17.27 48.35,27.65 81.57,30.98 33.23,3.33 64.98,-1.16 95.3,-13.66 30.29,-12.52 52.68,-31.57 67.09,-56.81 14.2,-25.23 23.55,-63.26 27.79,-113.67l26.6 -316.83 111.01 11.11 -49.76 592.54 -99.65 -9.97z"/>
   <path class="fil5" d="M9863.82 16843.83l4.94 -116.85 98.06 4.15 -4.94 116.85 -98.06 -4.15zm-30.43 719.85l25.64 -606.5 98.06 4.14 -25.64 606.51 -98.06 -4.15z"/>
   <path class="fil5" d="M10071.29 17599.82l0 -595.21 98.51 0 0 84.12c20.17,-29.07 47.19,-52.59 80.86,-70.17 33.67,-17.77 71.9,-26.55 114.94,-26.55 47.78,0 87.08,9.16 117.63,27.31 30.54,18.37 52.16,43.78 64.63,76.67 51.55,-69.38 118.27,-103.98 200.57,-103.98 64.43,0 114.09,16.23 148.59,48.93 34.73,32.67 52.17,82.95 52.17,150.81l0 408.07 -109.73 0 0 -374.64c0,-40.12 -3.74,-69.19 -10.81,-86.96 -7.07,-17.77 -19.95,-31.91 -38.86,-42.8 -18.7,-10.92 -40.74,-16.26 -65.9,-16.26 -45.71,0 -83.54,13.96 -113.67,41.67 -30.14,27.9 -45.1,72.44 -45.1,133.61l0 345.38 -109.73 0 0 -386.29c0,-44.72 -8.96,-78.37 -26.84,-100.72 -17.85,-22.38 -47.16,-33.65 -87.69,-33.65 -30.76,0 -59.24,7.45 -85.43,22.35 -26.19,14.93 -45.1,36.71 -56.94,65.56 -11.64,28.69 -17.47,70.17 -17.47,124.24l0 308.51 -109.73 0z"/>
   <path class="fil5" d="M11070.8 17264.05c0,-102.71 33.13,-178.8 99.6,-228.27 55.29,-41.09 123,-61.62 202.71,-61.62 88.42,0 160.88,24.99 217.2,75.01 56.11,49.82 84.29,118.96 84.29,207.01 0,71.44 -12.45,127.54 -37.27,168.42 -24.86,40.91 -61.11,72.71 -108.71,95.39 -47.42,22.69 -99.4,33.95 -155.51,33.95 -90.28,0 -163.18,-24.83 -218.88,-74.68 -55.7,-49.82 -83.43,-121.62 -83.43,-215.21zm111.81 0.18c0,71.08 18.02,124.3 54.03,159.49 36.25,35.36 81.59,53.06 136.47,53.06 54.26,0 99.4,-17.7 135.61,-53.24 36.04,-35.54 54.06,-89.67 54.06,-162.35 0,-68.61 -18.22,-120.58 -54.47,-155.77 -36.21,-35.36 -81.38,-53.03 -135.2,-53.03 -54.88,0 -100.22,17.49 -136.47,52.68 -36.01,35.19 -54.03,88.25 -54.03,159.16z"/>
   <path class="fil5" d="M11706.6 17335.78l96.67 -28.36c10.54,37.46 29.89,64.67 57.94,81.79 28.01,16.97 64.92,22.51 110.28,16.52 45.96,-6.07 78.81,-19.53 98.72,-40.58 19.77,-20.83 28.12,-43.49 24.9,-67.82 -2.87,-21.74 -15.16,-37.62 -36.65,-47.41 -15.13,-6.75 -50.58,-13.04 -106.42,-19.24 -75.32,-8.12 -127.83,-16.79 -157.89,-26.03 -29.93,-9.44 -53.66,-24.55 -71.25,-45.66 -17.59,-20.93 -28.31,-45.34 -31.99,-73.14 -3.35,-25.42 -0.38,-49.62 8.7,-72.75 9.23,-23.17 23.13,-43.23 41.86,-60.22 14.07,-13.01 34,-25.13 59.65,-36.32 25.82,-11.21 53.88,-18.82 84.51,-22.86 46.11,-6.09 87.42,-5.06 123.92,3.33 36.68,8.18 64.7,22.35 84.24,42.07 19.37,19.96 34.78,47.87 45.9,83.96l-95.81 26.04c-8.27,-29.03 -24.2,-50.55 -47.57,-64.39 -23.36,-13.84 -54.33,-18.13 -93.08,-13.02 -45.56,6.02 -77.31,17.67 -94.86,34.86 -17.52,17.2 -25.09,35.68 -22.51,55.24 1.65,12.44 7.11,23.24 16.55,32.22 9.5,9.16 23.29,16.09 41.57,20.55 10.5,2.33 40.72,6.7 91.18,13.06 72.73,8.82 123.86,17.31 153.36,25.15 29.52,7.8 53.68,21.91 72.47,41.75 19,20.01 30.55,46.37 34.9,79.28 4.22,31.99 -1.45,63.43 -17.18,94.34 -15.72,30.89 -40.83,56.53 -75.25,76.89 -34.63,20.37 -75.02,33.53 -121.16,39.62 -76.38,10.08 -136.82,2.43 -180.94,-22.8 -44.15,-25.43 -75.64,-67.38 -94.76,-126.07z"/>
   <path class="fil5" d="M12371.75 16663.7l-31.88 -114.64 94.57 -26.3 31.88 114.64 -94.57 26.3zm112.11 949.67l-13.95 -87.02c20.4,-0.21 66.92,-4.05 77.84,-7.09 19.34,-5.38 31.79,-16.11 37.58,-32.05 5.8,-15.94 1.32,-50.82 -13.52,-104.19l-170.36 -612.56 94.56 -26.3 170.93 614.61c19.96,71.76 24.91,124.25 14.83,157.34 -12.6,42.84 -45.29,71.72 -98.12,86.41 -25.61,7.13 -74.08,11.17 -99.79,10.85z"/>
   <path class="fil5" d="M13179.53 17109.3l-27.83 -81.3c-23.86,77.41 -74.34,129.22 -151.6,155.67 -34.07,11.66 -68,16.41 -101.81,14.25 -33.88,-2.34 -61.15,-10.27 -81.85,-23.98 -20.76,-13.89 -38.63,-33.27 -53.66,-58.34 -10.15,-16.9 -22.07,-44.99 -35.53,-84.34l-115.81 -338.35 98.32 -33.66 103.55 302.55c16.53,48.28 29.73,80.23 39.36,95.59 14.49,22.29 34.02,36.79 58.88,43.79 24.67,7.05 51.64,5.66 81.06,-4.41 29.42,-10.08 54.57,-26.52 75.41,-49.53 20.8,-23.02 32.39,-48.76 34.83,-76.87 2.26,-28.02 -4.54,-65.53 -20.46,-112.04l-100.06 -292.37 98.29 -33.64 187.15 546.78 -88.24 30.2z"/>
   <path class="fil5" d="M13420.95 17006.59l-252.84 -495.33 90.96 -46.43 35.9 70.32c16.24,-76.27 65.85,-135.47 148.57,-177.69 36.09,-18.43 71.84,-29.88 107.42,-34.6 35.58,-4.72 65.44,-2.12 89.25,7.58 23.84,9.69 44.95,24.97 63.08,45.79 11.61,13.74 27.39,39.95 47.21,78.78l155.24 304.12 -101.33 51.73 -153.62 -300.95c-17.45,-34.2 -34.36,-57.86 -50.86,-70.69 -16.47,-12.86 -37.37,-19.21 -62.54,-19.21 -25.05,0.17 -51.26,7.13 -78.13,20.85 -42.98,21.93 -74.26,52.14 -93.93,90.86 -19.76,38.55 -13.31,89.6 19,152.91l137.95 270.24 -101.33 51.72z"/>
   <path class="fil5" d="M14291.57 16436.6l59.06 69.54c-18.88,20.86 -116.81,85.8 -134.23,98.45 -28.73,20.89 -54.22,32.62 -76.83,35.04 -22.45,2.35 -42.21,-1.41 -59.5,-11.59 -17.29,-10.14 -43.2,-39.09 -77.88,-86.71l-196.22 -269.41 -58.62 42.69 -44.63 -61.28 58.61 -42.69 -84.22 -115.65 44.67 -105.38 118.9 163.24 180.65 -112.49 55.44 51.14 -191.46 122.63 199.51 273.93c16.51,22.67 28.49,36.25 36.04,40.63 7.42,4.5 15.62,6.31 24.8,5.62 9.03,-0.85 19.49,-5.47 31.2,-14 8.69,-6.33 101.94,-71.21 114.71,-83.71z"/>
   <path class="fil5" d="M14260 16238.41c-56.08,-91.43 -71.41,-175.26 -45.81,-251.57 21.32,-63.41 63.69,-114.55 126.78,-153.25 69.98,-42.92 140.97,-55.85 212.85,-38.66 71.61,17.12 131.66,64.99 179.74,143.37 39.01,63.6 59.79,119.58 62.46,168.03 2.67,48.48 -8.65,94.38 -33.94,137.68 -25.15,43.22 -60.13,78.48 -104.54,105.71 -71.44,43.83 -142.7,57.1 -214,39.77 -71.29,-17.31 -132.44,-67.77 -183.54,-151.08zm88.59 -54.12c38.81,63.28 82.13,101.9 129.84,115.75 48,13.89 93.54,7.63 136.98,-19.01 42.94,-26.34 69,-64 78.26,-113.22 9.11,-49.14 -6.18,-106.07 -45.87,-170.77 -37.46,-61.07 -80.26,-98.49 -128.16,-112.23 -47.97,-13.9 -93.36,-7.71 -135.96,18.42 -43.43,26.64 -69.77,64.22 -79.24,113.14 -9.28,48.81 5.43,104.79 44.15,167.92z"/>
   <path class="fil5" d="M14862.69 15957.48l67.13 -71.83c28.21,27.62 58.6,41.99 91.14,43.31 32.43,1.21 66.5,-11.9 101.77,-39.21 35.74,-27.66 56.58,-55.41 62.56,-83.5 5.99,-27.82 1.37,-51.7 -13.88,-71.4 -13.63,-17.61 -32.21,-25.51 -55.43,-23.61 -16.27,1.45 -49.49,13.21 -99.91,34.95 -67.86,29.55 -116.74,47.51 -146.92,54.06 -30.18,6.31 -58.02,4.64 -83.78,-5.25 -25.66,-9.74 -47.31,-25.87 -64.74,-48.39 -15.94,-20.58 -25.9,-43.18 -30.14,-67.81 -4.13,-24.76 -2.71,-49.05 4.36,-73.02 5.2,-18.21 15.81,-38.51 31.73,-60.77 16.05,-22.36 35.86,-42.66 59.68,-61.09 35.86,-27.76 71.32,-46.96 106.5,-57.38 35.24,-10.7 66.24,-11.94 92.92,-4.2 26.67,8.02 54.08,24.92 82.08,51.06l-67.59 69.38c-21.96,-21.36 -46.52,-32.42 -73.41,-33.15 -26.89,-0.73 -55.29,10.58 -85.42,33.9 -35.42,27.42 -56.27,53.06 -62.26,76.62 -5.95,23.57 -2.82,43.4 9.44,59.24 7.8,10.08 17.98,16.86 30.6,20.11 12.75,3.39 27.98,2.74 45.74,-2.25 10.08,-3.07 37.88,-13.95 83.83,-32.94 66.05,-27.67 113.66,-45.12 142.64,-52.63 28.99,-7.53 56.69,-6.96 82.8,1.25 26.38,8.24 49.73,25.67 70.36,52.32 20.07,25.92 31.47,56.15 34.1,90.83 2.62,34.65 -5.39,69.28 -24.01,103.83 -18.79,34.65 -46.16,65.8 -82.04,93.58 -59.39,45.97 -114.44,68.68 -164.75,68.09 -50.44,-0.76 -98.69,-22.1 -145.1,-64.1z"/>
   <path class="fil5" d="M15241.54 15547.54l-296.09 -300.7 -122.15 -133.69 89.76 -82.01 122.15 133.69 269.47 320.24 -63.14 62.47zm136.33 165.96l-76.99 -84.26 83.18 -76 76.99 84.26 -83.18 76z"/>
  </g>
 </g>
</svg>
